<svg xmlns="http://www.w3.org/2000/svg" xmlns:xlink="http://www.w3.org/1999/xlink" contentStyleType="text/css" data-diagram-type="SEQUENCE" height="1987px" preserveAspectRatio="none" style="width:1182px;height:1987px;background:#FFFFFF;" version="1.1" viewBox="0 0 1182 1987" width="1182px" zoomAndPan="magnify"><title>Data Exchange Authorization   Sequence Diagrams</title><defs/><g><text fill="#000000" font-family="sans-serif" font-size="14" font-weight="bold" lengthAdjust="spacing" textLength="401.6797" x="386.5764" y="27.9951">Data Exchange Authorization   Sequence Diagrams</text><rect fill="#DDDDDD" height="1938.6172" style="stroke:#181818;stroke-width:0.5;" width="843.1294" x="1" y="43.2969"/><text fill="#000000" font-family="sans-serif" font-size="13" font-weight="bold" lengthAdjust="spacing" textLength="272.1113" x="286.509" y="55.3638">Local XIS - Data Holder (Bronhouder)</text><rect fill="#DDDDDD" height="1938.6172" style="stroke:#181818;stroke-width:0.5;" width="298.9634" x="875.8691" y="43.2969"/><text fill="#000000" font-family="sans-serif" font-size="13" font-weight="bold" lengthAdjust="spacing" textLength="292.9634" x="878.8691" y="55.3638">Remote XIS - Data Requester (Afnemer)</text><g><title>EHR</title><rect fill="#FFFFFF" height="285.5938" style="stroke:#181818;stroke-width:1;" width="10" x="60.5356" y="120.0234"/></g><g><title>Policy Information Point</title><rect fill="#FFFFFF" height="29.1328" style="stroke:#181818;stroke-width:1;" width="10" x="287.3794" y="214.5547"/></g><g><title>Policy Information Point</title><rect fill="#FFFFFF" height="29.1328" style="stroke:#181818;stroke-width:1;" width="10" x="287.3794" y="303.0859"/></g><g><title>Policy Information Point</title><rect fill="#FFFFFF" height="29.1328" style="stroke:#181818;stroke-width:1;" width="10" x="287.3794" y="652.9453"/></g><g><title>Policy Information Point</title><rect fill="#FFFFFF" height="44.2656" style="stroke:#181818;stroke-width:1;" width="10" x="287.3794" y="973.5391"/></g><g><title>Policy Information Point</title><rect fill="#FFFFFF" height="44.2656" style="stroke:#181818;stroke-width:1;" width="10" x="287.3794" y="1339.5313"/></g><g><title>Policy Information Point</title><rect fill="#FFFFFF" height="44.2656" style="stroke:#181818;stroke-width:1;" width="10" x="287.3794" y="1675.2578"/></g><g><title>Policy Decision Point</title><rect fill="#FFFFFF" height="1351.7734" style="stroke:#181818;stroke-width:1;" width="10" x="529.064" y="518.2813"/></g><g><title>Policy Decision Point</title><rect fill="#FFFFFF" height="170.7969" style="stroke:#181818;stroke-width:1;" width="10" x="534.064" y="603.6797"/></g><g><title>Policy Decision Point</title><rect fill="#FFFFFF" height="216.1953" style="stroke:#181818;stroke-width:1;" width="10" x="534.064" y="894.0078"/></g><g><title>Policy Decision Point</title><rect fill="#FFFFFF" height="231.3281" style="stroke:#181818;stroke-width:1;" width="10" x="534.064" y="1244.8672"/></g><g><title>Policy Decision Point</title><rect fill="#FFFFFF" height="185.9297" style="stroke:#181818;stroke-width:1;" width="10" x="534.064" y="1625.9922"/></g><g><title>Policy Enforcement Point</title><rect fill="#FFFFFF" height="1432.3047" style="stroke:#181818;stroke-width:1;" width="10" x="740.7183" y="474.0156"/></g><g><title>FHIR Client.Server</title><rect fill="#FFFFFF" height="1544.8359" style="stroke:#181818;stroke-width:1;" width="10" x="1020.3508" y="376.4844"/></g><rect fill="none" height="1493.7031" style="stroke:#000000;stroke-width:1.5;" width="934.1013" x="172.2715" y="420.6172"/><rect fill="none" height="1329.7734" style="stroke:#000000;stroke-width:1.5;" width="667.8579" x="182.2715" y="533.2813"/><rect fill="none" height="232.0625" style="stroke:#000000;stroke-width:1.5;" width="553.4468" x="192.2715" y="557.4141"/><rect fill="none" height="277.4609" style="stroke:#000000;stroke-width:1.5;" width="479.6108" x="192.2715" y="847.7422"/><rect fill="none" height="307.7266" style="stroke:#000000;stroke-width:1.5;" width="479.6108" x="192.2715" y="1183.4688"/><rect fill="none" height="277.4609" style="stroke:#000000;stroke-width:1.5;" width="479.6108" x="192.2715" y="1549.4609"/><g><title>EHR</title><rect fill="#000000" fill-opacity="0.00000" height="1821.2969" width="8" x="61.5356" y="110.0234"/><line style="stroke:#181818;stroke-width:0.5;stroke-dasharray:5,5;" x1="65" x2="65" y1="110.0234" y2="1931.3203"/></g><g><title>Policy Information Point</title><rect fill="#000000" fill-opacity="0.00000" height="1821.2969" width="8" x="288.3794" y="110.0234"/><line style="stroke:#181818;stroke-width:0.5;stroke-dasharray:5,5;" x1="292.2715" x2="292.2715" y1="110.0234" y2="1931.3203"/></g><g><title>Policy Decision Point</title><rect fill="#000000" fill-opacity="0.00000" height="1821.2969" width="8" x="530.064" y="110.0234"/><line style="stroke:#181818;stroke-width:0.5;stroke-dasharray:5,5;" x1="533.7979" x2="533.7979" y1="110.0234" y2="1931.3203"/></g><g><title>Policy Enforcement Point</title><rect fill="#000000" fill-opacity="0.00000" height="1821.2969" width="8" x="741.7183" y="110.0234"/><line style="stroke:#181818;stroke-width:0.5;stroke-dasharray:5,5;" x1="745.3071" x2="745.3071" y1="110.0234" y2="1931.3203"/></g><g><title>FHIR Client.Server</title><rect fill="#000000" fill-opacity="0.00000" height="1821.2969" width="8" x="1021.3508" y="110.0234"/><line style="stroke:#181818;stroke-width:0.5;stroke-dasharray:5,5;" x1="1025.3289" x2="1025.3289" y1="110.0234" y2="1931.3203"/></g><g class="participant participant-head" data-participant="ehr"><rect fill="#E2E2F0" height="46.5938" rx="2.5" ry="2.5" style="stroke:#181818;stroke-width:0.5;" width="121.0713" x="5" y="62.4297"/><text fill="#000000" font-family="sans-serif" font-size="14" lengthAdjust="spacing" textLength="29.1006" x="50.9854" y="82.4248">EHR</text><text fill="#000000" font-family="sans-serif" font-size="14" lengthAdjust="spacing" textLength="102.6211" x="16.4502" y="98.7217">[ FHIR Server ]</text></g><g class="participant participant-tail" data-participant="ehr"><rect fill="#E2E2F0" height="46.5938" rx="2.5" ry="2.5" style="stroke:#181818;stroke-width:0.5;" width="121.0713" x="5" y="1930.3203"/><text fill="#000000" font-family="sans-serif" font-size="14" lengthAdjust="spacing" textLength="29.1006" x="50.9854" y="1950.3154">EHR</text><text fill="#000000" font-family="sans-serif" font-size="14" lengthAdjust="spacing" textLength="102.6211" x="16.4502" y="1966.6123">[ FHIR Server ]</text></g><g class="participant participant-head" data-participant="pip"><rect fill="#E2E2F0" height="46.5938" rx="2.5" ry="2.5" style="stroke:#181818;stroke-width:0.5;" width="180.2158" x="202.2715" y="62.4297"/><text fill="#000000" font-family="sans-serif" font-size="14" lengthAdjust="spacing" textLength="166.2158" x="209.2715" y="82.4248">Policy Information Point</text><text fill="#000000" font-family="sans-serif" font-size="14" lengthAdjust="spacing" textLength="48.7607" x="270.2241" y="98.7217">[ TBD ]</text></g><g class="participant participant-tail" data-participant="pip"><rect fill="#E2E2F0" height="46.5938" rx="2.5" ry="2.5" style="stroke:#181818;stroke-width:0.5;" width="180.2158" x="202.2715" y="1930.3203"/><text fill="#000000" font-family="sans-serif" font-size="14" lengthAdjust="spacing" textLength="166.2158" x="209.2715" y="1950.3154">Policy Information Point</text><text fill="#000000" font-family="sans-serif" font-size="14" lengthAdjust="spacing" textLength="48.7607" x="270.2241" y="1966.6123">[ TBD ]</text></g><g class="participant participant-head" data-participant="pdp"><rect fill="#E2E2F0" height="46.5938" rx="2.5" ry="2.5" style="stroke:#181818;stroke-width:0.5;" width="158.5322" x="454.7979" y="62.4297"/><text fill="#000000" font-family="sans-serif" font-size="14" lengthAdjust="spacing" textLength="144.5322" x="461.7979" y="82.4248">Policy Decision Point</text><text fill="#000000" font-family="sans-serif" font-size="14" lengthAdjust="spacing" textLength="96.0176" x="486.0552" y="98.7217">[ Knooppunt ]</text></g><g class="participant participant-tail" data-participant="pdp"><rect fill="#E2E2F0" height="46.5938" rx="2.5" ry="2.5" style="stroke:#181818;stroke-width:0.5;" width="158.5322" x="454.7979" y="1930.3203"/><text fill="#000000" font-family="sans-serif" font-size="14" lengthAdjust="spacing" textLength="144.5322" x="461.7979" y="1950.3154">Policy Decision Point</text><text fill="#000000" font-family="sans-serif" font-size="14" lengthAdjust="spacing" textLength="96.0176" x="486.0552" y="1966.6123">[ Knooppunt ]</text></g><g class="participant participant-head" data-participant="pep"><rect fill="#E2E2F0" height="46.5938" rx="2.5" ry="2.5" style="stroke:#181818;stroke-width:0.5;" width="188.8223" x="651.3071" y="62.4297"/><text fill="#000000" font-family="sans-serif" font-size="14" lengthAdjust="spacing" textLength="174.8223" x="658.3071" y="82.4248">Policy Enforcement Point</text><text fill="#000000" font-family="sans-serif" font-size="14" lengthAdjust="spacing" textLength="65.3379" x="713.0493" y="98.7217">[ NGINX ]</text></g><g class="participant participant-tail" data-participant="pep"><rect fill="#E2E2F0" height="46.5938" rx="2.5" ry="2.5" style="stroke:#181818;stroke-width:0.5;" width="188.8223" x="651.3071" y="1930.3203"/><text fill="#000000" font-family="sans-serif" font-size="14" lengthAdjust="spacing" textLength="174.8223" x="658.3071" y="1950.3154">Policy Enforcement Point</text><text fill="#000000" font-family="sans-serif" font-size="14" lengthAdjust="spacing" textLength="65.3379" x="713.0493" y="1966.6123">[ NGINX ]</text></g><g class="participant participant-head" data-participant="remoteXIS"><rect fill="#E2E2F0" height="30.2969" rx="2.5" ry="2.5" style="stroke:#181818;stroke-width:0.5;" width="142.0439" x="954.3289" y="78.7266"/><text fill="#000000" font-family="sans-serif" font-size="14" lengthAdjust="spacing" textLength="128.0439" x="961.3289" y="98.7217">FHIR Client/Server</text></g><g class="participant participant-tail" data-participant="remoteXIS"><rect fill="#E2E2F0" height="30.2969" rx="2.5" ry="2.5" style="stroke:#181818;stroke-width:0.5;" width="142.0439" x="954.3289" y="1930.3203"/><text fill="#000000" font-family="sans-serif" font-size="14" lengthAdjust="spacing" textLength="128.0439" x="961.3289" y="1950.3154">FHIR Client/Server</text></g><g><title>EHR</title><rect fill="#FFFFFF" height="285.5938" style="stroke:#181818;stroke-width:1;" width="10" x="60.5356" y="120.0234"/></g><g><title>Policy Information Point</title><rect fill="#FFFFFF" height="29.1328" style="stroke:#181818;stroke-width:1;" width="10" x="287.3794" y="214.5547"/></g><g><title>Policy Information Point</title><rect fill="#FFFFFF" height="29.1328" style="stroke:#181818;stroke-width:1;" width="10" x="287.3794" y="303.0859"/></g><g><title>Policy Information Point</title><rect fill="#FFFFFF" height="29.1328" style="stroke:#181818;stroke-width:1;" width="10" x="287.3794" y="652.9453"/></g><g><title>Policy Information Point</title><rect fill="#FFFFFF" height="44.2656" style="stroke:#181818;stroke-width:1;" width="10" x="287.3794" y="973.5391"/></g><g><title>Policy Information Point</title><rect fill="#FFFFFF" height="44.2656" style="stroke:#181818;stroke-width:1;" width="10" x="287.3794" y="1339.5313"/></g><g><title>Policy Information Point</title><rect fill="#FFFFFF" height="44.2656" style="stroke:#181818;stroke-width:1;" width="10" x="287.3794" y="1675.2578"/></g><g><title>Policy Decision Point</title><rect fill="#FFFFFF" height="1351.7734" style="stroke:#181818;stroke-width:1;" width="10" x="529.064" y="518.2813"/></g><g><title>Policy Decision Point</title><rect fill="#FFFFFF" height="170.7969" style="stroke:#181818;stroke-width:1;" width="10" x="534.064" y="603.6797"/></g><g><title>Policy Decision Point</title><rect fill="#FFFFFF" height="216.1953" style="stroke:#181818;stroke-width:1;" width="10" x="534.064" y="894.0078"/></g><g><title>Policy Decision Point</title><rect fill="#FFFFFF" height="231.3281" style="stroke:#181818;stroke-width:1;" width="10" x="534.064" y="1244.8672"/></g><g><title>Policy Decision Point</title><rect fill="#FFFFFF" height="185.9297" style="stroke:#181818;stroke-width:1;" width="10" x="534.064" y="1625.9922"/></g><g><title>Policy Enforcement Point</title><rect fill="#FFFFFF" height="1432.3047" style="stroke:#181818;stroke-width:1;" width="10" x="740.7183" y="474.0156"/></g><g><title>FHIR Client.Server</title><rect fill="#FFFFFF" height="1544.8359" style="stroke:#181818;stroke-width:1;" width="10" x="1020.3508" y="376.4844"/></g><rect fill="#EEEEEE" height="3" style="stroke:#EEEEEE;stroke-width:1;" width="1175.8325" x="0" y="140.5898"/><line style="stroke:#000000;stroke-width:1;" x1="0" x2="1175.8325" y1="140.5898" y2="140.5898"/><line style="stroke:#000000;stroke-width:1;" x1="0" x2="1175.8325" y1="143.5898" y2="143.5898"/><rect fill="#EEEEEE" height="23.1328" style="stroke:#000000;stroke-width:2;" width="304.3037" x="435.7644" y="130.0234"/><text fill="#000000" font-family="sans-serif" font-size="13" font-weight="bold" lengthAdjust="spacing" textLength="285.7778" x="441.7644" y="146.0903">Referral (Verwijzing), e.g. eOverdracht</text><g class="message" data-participant-1="ehr" data-participant-2="pip"><polygon fill="#181818" points="275.3794,210.5547,285.3794,214.5547,275.3794,218.5547,279.3794,214.5547" style="stroke:#181818;stroke-width:1;"/><line style="stroke:#181818;stroke-width:1;" x1="70.5356" x2="281.3794" y1="214.5547" y2="214.5547"/><text fill="#000000" font-family="sans-serif" font-size="13" lengthAdjust="spacing" textLength="197.8438" x="77.5356" y="179.2231">Record resource-level consent</text><text fill="#000000" font-family="sans-serif" font-size="13" lengthAdjust="spacing" textLength="140.5498" x="77.5356" y="194.356">[FHIR] POST /Consent</text><text fill="#000000" font-family="sans-serif" font-size="13" lengthAdjust="spacing" textLength="172.7515" x="85.8003" y="209.4888">custodian, actor, provision</text></g><g class="message" data-participant-1="pip" data-participant-2="ehr"><polygon fill="#181818" points="81.5356,239.6875,71.5356,243.6875,81.5356,247.6875,77.5356,243.6875" style="stroke:#181818;stroke-width:1;"/><line style="stroke:#181818;stroke-width:1;stroke-dasharray:2,2;" x1="75.5356" x2="291.3794" y1="243.6875" y2="243.6875"/><text fill="#000000" font-family="sans-serif" font-size="13" lengthAdjust="spacing" textLength="80.6787" x="87.5356" y="238.6216">201 Created</text></g><g class="message" data-participant-1="ehr" data-participant-2="pip"><polygon fill="#181818" points="275.3794,299.0859,285.3794,303.0859,275.3794,307.0859,279.3794,303.0859" style="stroke:#181818;stroke-width:1;"/><line style="stroke:#181818;stroke-width:1;" x1="70.5356" x2="281.3794" y1="303.0859" y2="303.0859"/><text fill="#000000" font-family="sans-serif" font-size="13" lengthAdjust="spacing" textLength="187.3066" x="77.5356" y="267.7544">Record patient-level consent</text><text fill="#000000" font-family="sans-serif" font-size="13" lengthAdjust="spacing" textLength="140.5498" x="77.5356" y="282.8872">[FHIR] POST /Consent</text><text fill="#000000" font-family="sans-serif" font-size="13" lengthAdjust="spacing" textLength="159.5801" x="85.8003" y="298.02">custodian, actor, patient</text></g><g class="message" data-participant-1="pip" data-participant-2="ehr"><polygon fill="#181818" points="81.5356,328.2188,71.5356,332.2188,81.5356,336.2188,77.5356,332.2188" style="stroke:#181818;stroke-width:1;"/><line style="stroke:#181818;stroke-width:1;stroke-dasharray:2,2;" x1="75.5356" x2="291.3794" y1="332.2188" y2="332.2188"/><text fill="#000000" font-family="sans-serif" font-size="13" lengthAdjust="spacing" textLength="80.6787" x="87.5356" y="327.1528">201 Created</text></g><g class="message" data-participant-1="ehr" data-participant-2="remoteXIS"><polygon fill="#181818" points="1008.3508,372.4844,1018.3508,376.4844,1008.3508,380.4844,1012.3508,376.4844" style="stroke:#181818;stroke-width:1;"/><line style="stroke:#181818;stroke-width:1;" x1="70.5356" x2="1014.3508" y1="376.4844" y2="376.4844"/><text fill="#000000" font-family="sans-serif" font-size="13" lengthAdjust="spacing" textLength="38.6572" x="77.5356" y="356.2856">Notify</text><text fill="#000000" font-family="sans-serif" font-size="13" lengthAdjust="spacing" textLength="97.7983" x="77.5356" y="371.4185">POST Task/123</text></g><g class="message" data-participant-1="remoteXIS" data-participant-2="ehr"><polygon fill="#181818" points="76.5356,401.6172,66.5356,405.6172,76.5356,409.6172,72.5356,405.6172" style="stroke:#181818;stroke-width:1;"/><line style="stroke:#181818;stroke-width:1;stroke-dasharray:2,2;" x1="70.5356" x2="1019.3508" y1="405.6172" y2="405.6172"/><text fill="#000000" font-family="sans-serif" font-size="13" lengthAdjust="spacing" textLength="47.7026" x="82.5356" y="400.5513">200 OK</text></g><path d="M172.2715,420.6172 L292.7261,420.6172 L292.7261,427.75 L282.7261,437.75 L172.2715,437.75 L172.2715,420.6172" fill="#EEEEEE" style="stroke:#000000;stroke-width:1.5;"/><rect fill="none" height="1493.7031" style="stroke:#000000;stroke-width:1.5;" width="934.1013" x="172.2715" y="420.6172"/><text fill="#000000" font-family="sans-serif" font-size="13" font-weight="bold" lengthAdjust="spacing" textLength="75.4546" x="187.2715" y="433.6841">Read Task</text><g class="message" data-participant-1="remoteXIS" data-participant-2="pep"><polygon fill="#181818" points="761.7183,470.0156,751.7183,474.0156,761.7183,478.0156,757.7183,474.0156" style="stroke:#181818;stroke-width:1;"/><line style="stroke:#181818;stroke-width:1;" x1="755.7183" x2="1019.3508" y1="474.0156" y2="474.0156"/><text fill="#000000" font-family="sans-serif" font-size="13" lengthAdjust="spacing" textLength="134.1577" x="767.7183" y="453.8169">[FHIR] GET Task/123</text><text fill="#000000" font-family="sans-serif" font-size="13" lengthAdjust="spacing" textLength="176.1729" x="767.7183" y="468.9497">scope=eOverdracht-server</text></g><g class="message" data-participant-1="pep" data-participant-2="pdp"><polygon fill="#181818" points="550.064,514.2813,540.064,518.2813,550.064,522.2813,546.064,518.2813" style="stroke:#181818;stroke-width:1;"/><line style="stroke:#181818;stroke-width:1;" x1="544.064" x2="739.7183" y1="518.2813" y2="518.2813"/><text fill="#000000" font-family="sans-serif" font-size="13" lengthAdjust="spacing" textLength="158.5581" x="556.064" y="498.0825">Evaluate access request</text><text fill="#000000" font-family="sans-serif" font-size="13" lengthAdjust="spacing" textLength="124.8838" x="556.064" y="513.2153">POST v1/data/main</text></g><path d="M755,491.582 L755,516.582 L1050,516.582 L1050,501.582 L1040,491.582 L755,491.582" fill="#FEFFDD" style="stroke:#181818;stroke-width:0.5;"/><path d="M1040,491.582 L1040,501.582 L1050,501.582 L1040,491.582" fill="#FEFFDD" style="stroke:#181818;stroke-width:0.5;"/><text fill="#000000" font-family="sans-serif" font-size="13" lengthAdjust="spacing" textLength="274.168" x="761" y="508.6489">'main' policy includes all use case-policies</text><path d="M182.2715,533.2813 L258.8955,533.2813 L258.8955,540.4141 L248.8955,550.4141 L182.2715,550.4141 L182.2715,533.2813" fill="#EEEEEE" style="stroke:#000000;stroke-width:1.5;"/><rect fill="none" height="1329.7734" style="stroke:#000000;stroke-width:1.5;" width="667.8579" x="182.2715" y="533.2813"/><text fill="#000000" font-family="sans-serif" font-size="13" font-weight="bold" lengthAdjust="spacing" textLength="31.624" x="197.2715" y="546.3481">loop</text><text fill="#000000" font-family="sans-serif" font-size="11" font-weight="bold" lengthAdjust="spacing" textLength="199.4556" x="273.8955" y="545.4917">[Evaluate scope-mapped-policy]</text><path d="M192.2715,557.4141 L436.3149,557.4141 L436.3149,564.5469 L426.3149,574.5469 L192.2715,574.5469 L192.2715,557.4141" fill="#EEEEEE" style="stroke:#000000;stroke-width:1.5;"/><rect fill="none" height="232.0625" style="stroke:#000000;stroke-width:1.5;" width="553.4468" x="192.2715" y="557.4141"/><text fill="#000000" font-family="sans-serif" font-size="13" font-weight="bold" lengthAdjust="spacing" textLength="199.0435" x="207.2715" y="570.481">CapabilityStatement Policy</text><g class="message" data-participant-1="pdp" data-participant-2="pdp"><line style="stroke:#181818;stroke-width:1;" x1="539.064" x2="586.064" y1="590.6797" y2="590.6797"/><line style="stroke:#181818;stroke-width:1;" x1="586.064" x2="586.064" y1="590.6797" y2="603.6797"/><line style="stroke:#181818;stroke-width:1;" x1="545.064" x2="586.064" y1="603.6797" y2="603.6797"/><polygon fill="#181818" points="555.064,599.6797,545.064,603.6797,555.064,607.6797,551.064,603.6797" style="stroke:#181818;stroke-width:1;"/><text fill="#000000" font-family="sans-serif" font-size="13" lengthAdjust="spacing" textLength="56.7861" x="551.064" y="585.6138">Evaluate</text></g><g class="message" data-participant-1="pdp" data-participant-2="pip"><polygon fill="#181818" points="308.3794,648.9453,298.3794,652.9453,308.3794,656.9453,304.3794,652.9453" style="stroke:#181818;stroke-width:1;"/><line style="stroke:#181818;stroke-width:1;" x1="302.3794" x2="533.064" y1="652.9453" y2="652.9453"/><text fill="#000000" font-family="sans-serif" font-size="13" lengthAdjust="spacing" textLength="212.6846" x="314.3794" y="632.7466">[FHIR] GET /CapabilityStatement</text><text fill="#000000" font-family="sans-serif" font-size="13" lengthAdjust="spacing" textLength="118.7583" x="318.5117" y="647.8794">?url=canonical-url</text></g><g class="message" data-participant-1="pip" data-participant-2="pdp"><polygon fill="#181818" points="522.064,678.0781,532.064,682.0781,522.064,686.0781,526.064,682.0781" style="stroke:#181818;stroke-width:1;"/><line style="stroke:#181818;stroke-width:1;stroke-dasharray:2,2;" x1="292.3794" x2="528.064" y1="682.0781" y2="682.0781"/><text fill="#000000" font-family="sans-serif" font-size="13" lengthAdjust="spacing" textLength="133.5483" x="299.3794" y="677.0122">CapabilityStatement</text></g><g class="message" data-participant-1="pdp" data-participant-2="pdp"><line style="stroke:#181818;stroke-width:1;" x1="544.064" x2="586.064" y1="726.3438" y2="726.3438"/><line style="stroke:#181818;stroke-width:1;" x1="586.064" x2="586.064" y1="726.3438" y2="739.3438"/><line style="stroke:#181818;stroke-width:1;" x1="545.064" x2="586.064" y1="739.3438" y2="739.3438"/><polygon fill="#181818" points="555.064,735.3438,545.064,739.3438,555.064,743.3438,551.064,739.3438" style="stroke:#181818;stroke-width:1;"/><text fill="#000000" font-family="sans-serif" font-size="13" lengthAdjust="spacing" textLength="167.6543" x="551.064" y="706.145">Check FHIR operation v.s.</text><text fill="#000000" font-family="sans-serif" font-size="13" lengthAdjust="spacing" textLength="133.5483" x="551.064" y="721.2778">CapabilityStatement</text></g><g class="message" data-participant-1="pdp" data-participant-2="pdp"><line style="stroke:#181818;stroke-width:1;stroke-dasharray:2,2;" x1="544.064" x2="586.064" y1="773.4766" y2="773.4766"/><line style="stroke:#181818;stroke-width:1;stroke-dasharray:2,2;" x1="586.064" x2="586.064" y1="773.4766" y2="786.4766"/><line style="stroke:#181818;stroke-width:1;stroke-dasharray:2,2;" x1="539.064" x2="586.064" y1="786.4766" y2="786.4766"/><polygon fill="#181818" points="549.064,782.4766,539.064,786.4766,549.064,790.4766,545.064,786.4766" style="stroke:#181818;stroke-width:1;"/><text fill="#000000" font-family="sans-serif" font-size="13" lengthAdjust="spacing" textLength="80.8755" x="551.064" y="768.4106">Permit/Deny</text></g><g class="message" data-participant-1="pdp" data-participant-2="pep"><polygon fill="#181818" points="728.7183,828.7422,738.7183,832.7422,728.7183,836.7422,732.7183,832.7422" style="stroke:#181818;stroke-width:1;"/><line style="stroke:#181818;stroke-width:1;stroke-dasharray:2,2;" x1="539.064" x2="734.7183" y1="832.7422" y2="832.7422"/><text fill="#000000" font-family="sans-serif" font-size="13" lengthAdjust="spacing" textLength="8.4106" x="546.064" y="812.5435">If</text><text fill="#000000" font-family="sans-serif" font-size="13" font-style="italic" lengthAdjust="spacing" textLength="33.9409" x="558.6069" y="812.5435">Deny</text><text fill="#000000" font-family="sans-serif" font-size="13" lengthAdjust="spacing" textLength="4.1323" x="592.5479" y="812.5435">,</text><text fill="#000000" font-family="sans-serif" font-size="13" lengthAdjust="spacing" textLength="96.9985" x="546.064" y="827.6763">end evaluation</text></g><path d="M192.2715,847.7422 L397.2769,847.7422 L397.2769,854.875 L387.2769,864.875 L192.2715,864.875 L192.2715,847.7422" fill="#EEEEEE" style="stroke:#000000;stroke-width:1.5;"/><rect fill="none" height="277.4609" style="stroke:#000000;stroke-width:1.5;" width="479.6108" x="192.2715" y="847.7422"/><text fill="#000000" font-family="sans-serif" font-size="13" font-weight="bold" lengthAdjust="spacing" textLength="160.0054" x="207.2715" y="860.8091">Resource-Level Policy</text><g class="message" data-participant-1="pdp" data-participant-2="pdp"><line style="stroke:#181818;stroke-width:1;" x1="539.064" x2="586.064" y1="881.0078" y2="881.0078"/><line style="stroke:#181818;stroke-width:1;" x1="586.064" x2="586.064" y1="881.0078" y2="894.0078"/><line style="stroke:#181818;stroke-width:1;" x1="545.064" x2="586.064" y1="894.0078" y2="894.0078"/><polygon fill="#181818" points="555.064,890.0078,545.064,894.0078,555.064,898.0078,551.064,894.0078" style="stroke:#181818;stroke-width:1;"/><text fill="#000000" font-family="sans-serif" font-size="13" lengthAdjust="spacing" textLength="56.7861" x="551.064" y="875.9419">Evaluate</text></g><g class="message" data-participant-1="pdp" data-participant-2="pip"><polygon fill="#181818" points="308.3794,969.5391,298.3794,973.5391,308.3794,977.5391,304.3794,973.5391" style="stroke:#181818;stroke-width:1;"/><line style="stroke:#181818;stroke-width:1;" x1="302.3794" x2="533.064" y1="973.5391" y2="973.5391"/><text fill="#000000" font-family="sans-serif" font-size="13" lengthAdjust="spacing" textLength="132.5137" x="314.3794" y="923.0747">[FHIR] GET /Consent</text><text fill="#000000" font-family="sans-serif" font-size="13" lengthAdjust="spacing" textLength="106.4756" x="322.644" y="938.2075">?data=Task/123</text><text fill="#000000" font-family="sans-serif" font-size="13" lengthAdjust="spacing" textLength="149.2144" x="322.644" y="953.3403">&amp;custodian=URA|9876</text><text fill="#000000" font-family="sans-serif" font-size="13" lengthAdjust="spacing" textLength="119.4438" x="322.644" y="968.4731">&amp;actor=URA|4321</text></g><g class="message" data-participant-1="pip" data-participant-2="pdp"><polygon fill="#181818" points="522.064,1013.8047,532.064,1017.8047,522.064,1021.8047,526.064,1017.8047" style="stroke:#181818;stroke-width:1;"/><line style="stroke:#181818;stroke-width:1;stroke-dasharray:2,2;" x1="292.3794" x2="528.064" y1="1017.8047" y2="1017.8047"/><text fill="#000000" font-family="sans-serif" font-size="13" lengthAdjust="spacing" textLength="47.7026" x="299.3794" y="997.606">200 OK</text><text fill="#000000" font-family="sans-serif" font-size="13" lengthAdjust="spacing" textLength="70.2939" x="299.3794" y="1012.7388">(Consents)</text></g><g class="message" data-participant-1="pdp" data-participant-2="pdp"><line style="stroke:#181818;stroke-width:1;" x1="544.064" x2="586.064" y1="1062.0703" y2="1062.0703"/><line style="stroke:#181818;stroke-width:1;" x1="586.064" x2="586.064" y1="1062.0703" y2="1075.0703"/><line style="stroke:#181818;stroke-width:1;" x1="545.064" x2="586.064" y1="1075.0703" y2="1075.0703"/><polygon fill="#181818" points="555.064,1071.0703,545.064,1075.0703,555.064,1079.0703,551.064,1075.0703" style="stroke:#181818;stroke-width:1;"/><text fill="#000000" font-family="sans-serif" font-size="13" lengthAdjust="spacing" textLength="93.6978" x="551.064" y="1041.8716">Verify consent</text><text fill="#000000" font-family="sans-serif" font-size="13" lengthAdjust="spacing" textLength="93.8184" x="551.064" y="1057.0044">(period, t.b.d.)</text></g><g class="message" data-participant-1="pdp" data-participant-2="pdp"><line style="stroke:#181818;stroke-width:1;stroke-dasharray:2,2;" x1="544.064" x2="586.064" y1="1109.2031" y2="1109.2031"/><line style="stroke:#181818;stroke-width:1;stroke-dasharray:2,2;" x1="586.064" x2="586.064" y1="1109.2031" y2="1122.2031"/><line style="stroke:#181818;stroke-width:1;stroke-dasharray:2,2;" x1="539.064" x2="586.064" y1="1122.2031" y2="1122.2031"/><polygon fill="#181818" points="549.064,1118.2031,539.064,1122.2031,549.064,1126.2031,545.064,1122.2031" style="stroke:#181818;stroke-width:1;"/><text fill="#000000" font-family="sans-serif" font-size="13" lengthAdjust="spacing" textLength="80.8755" x="551.064" y="1104.1372">Permit/Deny</text></g><g class="message" data-participant-1="pdp" data-participant-2="pep"><polygon fill="#181818" points="728.7183,1164.4688,738.7183,1168.4688,728.7183,1172.4688,732.7183,1168.4688" style="stroke:#181818;stroke-width:1;"/><line style="stroke:#181818;stroke-width:1;stroke-dasharray:2,2;" x1="539.064" x2="734.7183" y1="1168.4688" y2="1168.4688"/><text fill="#000000" font-family="sans-serif" font-size="13" lengthAdjust="spacing" textLength="8.4106" x="546.064" y="1148.27">If</text><text fill="#000000" font-family="sans-serif" font-size="13" font-style="italic" lengthAdjust="spacing" textLength="42.5547" x="558.6069" y="1148.27">Permit</text><text fill="#000000" font-family="sans-serif" font-size="13" lengthAdjust="spacing" textLength="4.1323" x="601.1616" y="1148.27">,</text><text fill="#000000" font-family="sans-serif" font-size="13" lengthAdjust="spacing" textLength="96.9985" x="546.064" y="1163.4028">end evaluation</text></g><path d="M192.2715,1183.4688 L501.6831,1183.4688 L501.6831,1205.7344 L491.6831,1215.7344 L192.2715,1215.7344 L192.2715,1183.4688" fill="#EEEEEE" style="stroke:#000000;stroke-width:1.5;"/><rect fill="none" height="307.7266" style="stroke:#000000;stroke-width:1.5;" width="479.6108" x="192.2715" y="1183.4688"/><text fill="#000000" font-family="sans-serif" font-size="13" font-weight="bold" lengthAdjust="spacing" textLength="264.4116" x="207.2715" y="1196.5356">Patient-Level Policy (Local Consent)</text><text fill="#000000" font-family="sans-serif" font-size="13" font-weight="bold" lengthAdjust="spacing" textLength="259.9937" x="207.2715" y="1211.6685">(if 'patient' input parameter exists)</text><g class="message" data-participant-1="pdp" data-participant-2="pdp"><line style="stroke:#181818;stroke-width:1;" x1="539.064" x2="586.064" y1="1231.8672" y2="1231.8672"/><line style="stroke:#181818;stroke-width:1;" x1="586.064" x2="586.064" y1="1231.8672" y2="1244.8672"/><line style="stroke:#181818;stroke-width:1;" x1="545.064" x2="586.064" y1="1244.8672" y2="1244.8672"/><polygon fill="#181818" points="555.064,1240.8672,545.064,1244.8672,555.064,1248.8672,551.064,1244.8672" style="stroke:#181818;stroke-width:1;"/><text fill="#000000" font-family="sans-serif" font-size="13" lengthAdjust="spacing" textLength="56.7861" x="551.064" y="1226.8013">Evaluate</text></g><g class="message" data-participant-1="pdp" data-participant-2="pip"><polygon fill="#181818" points="308.3794,1335.5313,298.3794,1339.5313,308.3794,1343.5313,304.3794,1339.5313" style="stroke:#181818;stroke-width:1;"/><line style="stroke:#181818;stroke-width:1;" x1="302.3794" x2="533.064" y1="1339.5313" y2="1339.5313"/><text fill="#000000" font-family="sans-serif" font-size="13" lengthAdjust="spacing" textLength="132.5137" x="314.3794" y="1273.9341">[FHIR] GET /Consent</text><text fill="#000000" font-family="sans-serif" font-size="13" lengthAdjust="spacing" textLength="141.1719" x="322.644" y="1289.0669">?patient=Patient/ABC</text><text fill="#000000" font-family="sans-serif" font-size="13" lengthAdjust="spacing" textLength="149.2144" x="322.644" y="1304.1997">&amp;custodian=URA|9876</text><text fill="#000000" font-family="sans-serif" font-size="13" lengthAdjust="spacing" textLength="119.4438" x="322.644" y="1319.3325">&amp;actor=URA|4321</text><text fill="#000000" font-family="sans-serif" font-size="13" lengthAdjust="spacing" textLength="4.1323" x="314.3794" y="1334.4653">&#160;</text></g><g class="message" data-participant-1="pip" data-participant-2="pdp"><polygon fill="#181818" points="522.064,1379.7969,532.064,1383.7969,522.064,1387.7969,526.064,1383.7969" style="stroke:#181818;stroke-width:1;"/><line style="stroke:#181818;stroke-width:1;stroke-dasharray:2,2;" x1="292.3794" x2="528.064" y1="1383.7969" y2="1383.7969"/><text fill="#000000" font-family="sans-serif" font-size="13" lengthAdjust="spacing" textLength="47.7026" x="299.3794" y="1363.5981">200 OK</text><text fill="#000000" font-family="sans-serif" font-size="13" lengthAdjust="spacing" textLength="70.2939" x="299.3794" y="1378.731">(Consents)</text></g><g class="message" data-participant-1="pdp" data-participant-2="pdp"><line style="stroke:#181818;stroke-width:1;" x1="544.064" x2="586.064" y1="1428.0625" y2="1428.0625"/><line style="stroke:#181818;stroke-width:1;" x1="586.064" x2="586.064" y1="1428.0625" y2="1441.0625"/><line style="stroke:#181818;stroke-width:1;" x1="545.064" x2="586.064" y1="1441.0625" y2="1441.0625"/><polygon fill="#181818" points="555.064,1437.0625,545.064,1441.0625,555.064,1445.0625,551.064,1441.0625" style="stroke:#181818;stroke-width:1;"/><text fill="#000000" font-family="sans-serif" font-size="13" lengthAdjust="spacing" textLength="93.6978" x="551.064" y="1407.8638">Verify consent</text><text fill="#000000" font-family="sans-serif" font-size="13" lengthAdjust="spacing" textLength="93.8184" x="551.064" y="1422.9966">(period, t.b.d.)</text></g><g class="message" data-participant-1="pdp" data-participant-2="pdp"><line style="stroke:#181818;stroke-width:1;stroke-dasharray:2,2;" x1="544.064" x2="586.064" y1="1475.1953" y2="1475.1953"/><line style="stroke:#181818;stroke-width:1;stroke-dasharray:2,2;" x1="586.064" x2="586.064" y1="1475.1953" y2="1488.1953"/><line style="stroke:#181818;stroke-width:1;stroke-dasharray:2,2;" x1="539.064" x2="586.064" y1="1488.1953" y2="1488.1953"/><polygon fill="#181818" points="549.064,1484.1953,539.064,1488.1953,549.064,1492.1953,545.064,1488.1953" style="stroke:#181818;stroke-width:1;"/><text fill="#000000" font-family="sans-serif" font-size="13" lengthAdjust="spacing" textLength="80.8755" x="551.064" y="1470.1294">Permit/Deny</text></g><g class="message" data-participant-1="pdp" data-participant-2="pep"><polygon fill="#181818" points="728.7183,1530.4609,738.7183,1534.4609,728.7183,1538.4609,732.7183,1534.4609" style="stroke:#181818;stroke-width:1;"/><line style="stroke:#181818;stroke-width:1;stroke-dasharray:2,2;" x1="539.064" x2="734.7183" y1="1534.4609" y2="1534.4609"/><text fill="#000000" font-family="sans-serif" font-size="13" lengthAdjust="spacing" textLength="8.4106" x="546.064" y="1514.2622">If</text><text fill="#000000" font-family="sans-serif" font-size="13" font-style="italic" lengthAdjust="spacing" textLength="42.5547" x="558.6069" y="1514.2622">Permit</text><text fill="#000000" font-family="sans-serif" font-size="13" lengthAdjust="spacing" textLength="4.1323" x="601.1616" y="1514.2622">,</text><text fill="#000000" font-family="sans-serif" font-size="13" lengthAdjust="spacing" textLength="96.9985" x="546.064" y="1529.395">end evaluation</text></g><path d="M192.2715,1549.4609 L510.8237,1549.4609 L510.8237,1586.8594 L500.8237,1596.8594 L192.2715,1596.8594 L192.2715,1549.4609" fill="#EEEEEE" style="stroke:#000000;stroke-width:1.5;"/><rect fill="none" height="277.4609" style="stroke:#000000;stroke-width:1.5;" width="479.6108" x="192.2715" y="1549.4609"/><text fill="#000000" font-family="sans-serif" font-size="13" font-weight="bold" lengthAdjust="spacing" textLength="273.5522" x="207.2715" y="1562.5278">Patient-Level Policy (Online Consent)</text><text fill="#000000" font-family="sans-serif" font-size="13" font-weight="bold" lengthAdjust="spacing" textLength="258.9907" x="207.2715" y="1577.6606">(if 'patient' input parameter exists,</text><text fill="#000000" font-family="sans-serif" font-size="13" font-weight="bold" lengthAdjust="spacing" textLength="235.5615" x="207.2715" y="1592.7935">and Mitz integration is enabled)</text><g class="message" data-participant-1="pdp" data-participant-2="pdp"><line style="stroke:#181818;stroke-width:1;" x1="539.064" x2="586.064" y1="1612.9922" y2="1612.9922"/><line style="stroke:#181818;stroke-width:1;" x1="586.064" x2="586.064" y1="1612.9922" y2="1625.9922"/><line style="stroke:#181818;stroke-width:1;" x1="545.064" x2="586.064" y1="1625.9922" y2="1625.9922"/><polygon fill="#181818" points="555.064,1621.9922,545.064,1625.9922,555.064,1629.9922,551.064,1625.9922" style="stroke:#181818;stroke-width:1;"/><text fill="#000000" font-family="sans-serif" font-size="13" lengthAdjust="spacing" textLength="56.7861" x="551.064" y="1607.9263">Evaluate</text></g><g class="message" data-participant-1="pdp" data-participant-2="pip"><polygon fill="#181818" points="308.3794,1671.2578,298.3794,1675.2578,308.3794,1679.2578,304.3794,1675.2578" style="stroke:#181818;stroke-width:1;"/><line style="stroke:#181818;stroke-width:1;" x1="302.3794" x2="533.064" y1="1675.2578" y2="1675.2578"/><text fill="#000000" font-family="sans-serif" font-size="13" lengthAdjust="spacing" textLength="189.3252" x="314.3794" y="1655.0591">Perform Mitz closed-question</text><text fill="#000000" font-family="sans-serif" font-size="13" lengthAdjust="spacing" textLength="45.3604" x="314.3794" y="1670.1919">[SOAP]</text></g><g class="message" data-participant-1="pip" data-participant-2="pdp"><polygon fill="#181818" points="522.064,1715.5234,532.064,1719.5234,522.064,1723.5234,526.064,1719.5234" style="stroke:#181818;stroke-width:1;"/><line style="stroke:#181818;stroke-width:1;stroke-dasharray:2,2;" x1="292.3794" x2="528.064" y1="1719.5234" y2="1719.5234"/><text fill="#000000" font-family="sans-serif" font-size="13" lengthAdjust="spacing" textLength="47.7026" x="299.3794" y="1699.3247">200 OK</text><text fill="#000000" font-family="sans-serif" font-size="13" lengthAdjust="spacing" textLength="70.2939" x="299.3794" y="1714.4575">(Consents)</text></g><g class="message" data-participant-1="pdp" data-participant-2="pdp"><line style="stroke:#181818;stroke-width:1;" x1="544.064" x2="586.064" y1="1763.7891" y2="1763.7891"/><line style="stroke:#181818;stroke-width:1;" x1="586.064" x2="586.064" y1="1763.7891" y2="1776.7891"/><line style="stroke:#181818;stroke-width:1;" x1="545.064" x2="586.064" y1="1776.7891" y2="1776.7891"/><polygon fill="#181818" points="555.064,1772.7891,545.064,1776.7891,555.064,1780.7891,551.064,1776.7891" style="stroke:#181818;stroke-width:1;"/><text fill="#000000" font-family="sans-serif" font-size="13" lengthAdjust="spacing" textLength="93.6978" x="551.064" y="1743.5903">Verify consent</text><text fill="#000000" font-family="sans-serif" font-size="13" lengthAdjust="spacing" textLength="93.8184" x="551.064" y="1758.7231">(period, t.b.d.)</text></g><g class="message" data-participant-1="pdp" data-participant-2="pdp"><line style="stroke:#181818;stroke-width:1;stroke-dasharray:2,2;" x1="544.064" x2="586.064" y1="1810.9219" y2="1810.9219"/><line style="stroke:#181818;stroke-width:1;stroke-dasharray:2,2;" x1="586.064" x2="586.064" y1="1810.9219" y2="1823.9219"/><line style="stroke:#181818;stroke-width:1;stroke-dasharray:2,2;" x1="539.064" x2="586.064" y1="1823.9219" y2="1823.9219"/><polygon fill="#181818" points="549.064,1819.9219,539.064,1823.9219,549.064,1827.9219,545.064,1823.9219" style="stroke:#181818;stroke-width:1;"/><text fill="#000000" font-family="sans-serif" font-size="13" lengthAdjust="spacing" textLength="80.8755" x="551.064" y="1805.856">Permit/Deny</text></g><g class="message" data-participant-1="pdp" data-participant-2="pep"><polygon fill="#181818" points="728.7183,1851.0547,738.7183,1855.0547,728.7183,1859.0547,732.7183,1855.0547" style="stroke:#181818;stroke-width:1;"/><line style="stroke:#181818;stroke-width:1;stroke-dasharray:2,2;" x1="539.064" x2="734.7183" y1="1855.0547" y2="1855.0547"/><text fill="#000000" font-family="sans-serif" font-size="13" lengthAdjust="spacing" textLength="80.8755" x="546.064" y="1849.9888">Permit/Deny</text></g><g class="message" data-participant-1="pep" data-participant-2="remoteXIS"><polygon fill="#181818" points="1008.3508,1902.3203,1018.3508,1906.3203,1008.3508,1910.3203,1012.3508,1906.3203" style="stroke:#181818;stroke-width:1;"/><line style="stroke:#181818;stroke-width:1;stroke-dasharray:2,2;" x1="745.7183" x2="1014.3508" y1="1906.3203" y2="1906.3203"/><text fill="#000000" font-family="sans-serif" font-size="13" lengthAdjust="spacing" textLength="47.7026" x="752.7183" y="1886.1216">200 OK</text><text fill="#000000" font-family="sans-serif" font-size="13" lengthAdjust="spacing" textLength="40.3521" x="752.7183" y="1901.2544">(Task)</text></g><!--SRC=[xLPDRnit4BtlhnZaK4k0f8sTeXz2re4igx6Gr18ajmWG-K1pHnAR5RabkQfbzCTtIAwrguy0Bepu59rixinxCu-FGrfXCuHBPXaCxlcIoGL2hx1BfSK3iq9909ZYtmLAJc62BJHRcIYwK_VmKN6MmQVX5De1u4fbAMfeN6WbbwgWlviHfKFEj1LSv4nQmAK6Pk3Lu6eoa_0PVhiQJeX0hodnzjL1U2vo7pvMcU0R6CgvqgjGrrW9QJt6pSNbqTnq9_SIkJ2rnC_mGIgLvmM57il6dUo1O-QuGlgq1RX-Fxp-v99Hfa2IU5ack58MwxfCd7x6EcbwSqaOHtJHFiibELAlIZyJn1O7SIgEA4a8SOvQa_gDFr7_8_vw47BHR05s5Xt04OMdcl6bXII96BTYpQWWKZvowhVFlQfT0k5AfyHiL46jjJDSOmPSIOE-FLV4BOn7qnk8-u-h0BmmLgM2oHOGjj8joBLQUsahCc88BH9JcnWTSHVENfz2NoC5f56AEy77Aijfeudq6OK5WEUNLUrE5wwL5VFDJ7h-6sQ-nATdRogARMXK9TMfNiFeGvt5RKkqqAh8gMsMUaHVOotztBkn2sNdxmSLyKmQhd9CQhlUDjun7gHg1ilE2SZXfNaN1ckM5UuZunoD8KRlqxArzMcSadlZ5HFIfqfdQoqMIzk54xTw0dau74BoZ8wx0PPbK1W4pWos_KU1Pg-GD1IIqTchAl1Dj5Sipp4DYHiVvNv1d3xBsPt8XDrCBMMK1t4dq1tuq1jKpMs_7gsY_djC5tjInqUeoM_l2fqbd4ab1St1DlrtW7ZWkmFAqeUXv2Cy1rbx_lnQ3m5lYVnBcB2ahWvZSzqndPby2fN7seADKQ-4ZIzHRgBZ1MsNtQJocnOTG7aR3-VmLfmxfBUnE6_Df4l0i5zkYknk_EHnFdtqO-2bzhoQA-_SCKYg0mVmmtRK97zCUl_- -ilFF_bbFtRyqezlpawVQuSmAsQoKTPYcizo0zqKDBUgCTeWImYLji1sxZfff_dI-ny0d-A0SNaFr0q0ZV3yABLfKZzY3YVbn3-XaPGNrjsmR8NkviLxOVOLV0dlb0KbPGznxwB_T0VDv7SFVLCFZMGc9FvF4n4L8whVXNsW28kBSh8AGrMpkmpJRsSpQjYzW0CvpvIXwz9VsbG0lOocezxuzhjdlkAPVQZT-7fFQUsnjFVyswhZBeJcNcPKGTRVUDMRy3y0]--></g></svg>