<svg xmlns="http://www.w3.org/2000/svg" xmlns:xlink="http://www.w3.org/1999/xlink" contentStyleType="text/css" data-diagram-type="SEQUENCE" height="1637px" preserveAspectRatio="none" style="width:1138px;height:1637px;background:#FFFFFF;" version="1.1" viewBox="0 0 1138 1637" width="1138px" zoomAndPan="magnify"><title>Data Exchange Authorization Sequence Diagrams</title><defs/><g><text fill="#000000" font-family="sans-serif" font-size="14" font-weight="bold" lengthAdjust="spacing" textLength="391.9316" x="369.2527" y="27.9951">Data Exchange Authorization Sequence Diagrams</text><rect fill="#DDDDDD" height="1587.7578" style="stroke:#181818;stroke-width:0.5;" width="798.7339" x="1" y="43.2969"/><text fill="#000000" font-family="sans-serif" font-size="13" font-weight="bold" lengthAdjust="spacing" textLength="272.1113" x="264.3113" y="55.3638">Local XIS - Data Holder (Bronhouder)</text><rect fill="#DDDDDD" height="1587.7578" style="stroke:#181818;stroke-width:0.5;" width="298.9634" x="831.4736" y="43.2969"/><text fill="#000000" font-family="sans-serif" font-size="13" font-weight="bold" lengthAdjust="spacing" textLength="292.9634" x="834.4736" y="55.3638">Remote XIS - Data Requester (Afnemer)</text><g><title>EHR</title><rect fill="#FFFFFF" height="285.5938" style="stroke:#181818;stroke-width:1;" width="10" x="60.5356" y="120.0234"/></g><g><title>Policy Information Point</title><rect fill="#FFFFFF" height="29.1328" style="stroke:#181818;stroke-width:1;" width="10" x="287.3794" y="214.5547"/></g><g><title>Policy Information Point</title><rect fill="#FFFFFF" height="29.1328" style="stroke:#181818;stroke-width:1;" width="10" x="287.3794" y="303.0859"/></g><g><title>Policy Information Point</title><rect fill="#FFFFFF" height="29.1328" style="stroke:#181818;stroke-width:1;" width="10" x="287.3794" y="652.9453"/></g><g><title>Policy Information Point</title><rect fill="#FFFFFF" height="44.2656" style="stroke:#181818;stroke-width:1;" width="10" x="287.3794" y="973.5391"/></g><g><title>Policy Information Point</title><rect fill="#FFFFFF" height="44.2656" style="stroke:#181818;stroke-width:1;" width="10" x="287.3794" y="1324.3984"/></g><g><title>Policy Decision Point</title><rect fill="#FFFFFF" height="1000.9141" style="stroke:#181818;stroke-width:1;" width="10" x="484.6685" y="518.2813"/></g><g><title>Policy Decision Point</title><rect fill="#FFFFFF" height="170.7969" style="stroke:#181818;stroke-width:1;" width="10" x="489.6685" y="603.6797"/></g><g><title>Policy Decision Point</title><rect fill="#FFFFFF" height="216.1953" style="stroke:#181818;stroke-width:1;" width="10" x="489.6685" y="894.0078"/></g><g><title>Policy Decision Point</title><rect fill="#FFFFFF" height="216.1953" style="stroke:#181818;stroke-width:1;" width="10" x="489.6685" y="1244.8672"/></g><g><title>Policy Enforcement Point</title><rect fill="#FFFFFF" height="1081.4453" style="stroke:#181818;stroke-width:1;" width="10" x="696.3228" y="474.0156"/></g><g><title>FHIR Client.Server</title><rect fill="#FFFFFF" height="1193.9766" style="stroke:#181818;stroke-width:1;" width="10" x="975.9553" y="376.4844"/></g><rect fill="none" height="1142.8438" style="stroke:#000000;stroke-width:1.5;" width="889.7058" x="172.2715" y="420.6172"/><rect fill="none" height="978.9141" style="stroke:#000000;stroke-width:1.5;" width="623.4624" x="182.2715" y="533.2813"/><rect fill="none" height="232.0625" style="stroke:#000000;stroke-width:1.5;" width="509.0513" x="192.2715" y="557.4141"/><rect fill="none" height="277.4609" style="stroke:#000000;stroke-width:1.5;" width="435.2153" x="192.2715" y="847.7422"/><rect fill="none" height="292.5938" style="stroke:#000000;stroke-width:1.5;" width="435.2153" x="192.2715" y="1183.4688"/><g><title>EHR</title><rect fill="#000000" fill-opacity="0.00000" height="1470.4375" width="8" x="61.5356" y="110.0234"/><line style="stroke:#181818;stroke-width:0.5;stroke-dasharray:5,5;" x1="65" x2="65" y1="110.0234" y2="1580.4609"/></g><g><title>Policy Information Point</title><rect fill="#000000" fill-opacity="0.00000" height="1470.4375" width="8" x="288.3794" y="110.0234"/><line style="stroke:#181818;stroke-width:0.5;stroke-dasharray:5,5;" x1="292.2715" x2="292.2715" y1="110.0234" y2="1580.4609"/></g><g><title>Policy Decision Point</title><rect fill="#000000" fill-opacity="0.00000" height="1470.4375" width="8" x="485.6685" y="110.0234"/><line style="stroke:#181818;stroke-width:0.5;stroke-dasharray:5,5;" x1="489.4023" x2="489.4023" y1="110.0234" y2="1580.4609"/></g><g><title>Policy Enforcement Point</title><rect fill="#000000" fill-opacity="0.00000" height="1470.4375" width="8" x="697.3228" y="110.0234"/><line style="stroke:#181818;stroke-width:0.5;stroke-dasharray:5,5;" x1="700.9116" x2="700.9116" y1="110.0234" y2="1580.4609"/></g><g><title>FHIR Client.Server</title><rect fill="#000000" fill-opacity="0.00000" height="1470.4375" width="8" x="976.9553" y="110.0234"/><line style="stroke:#181818;stroke-width:0.5;stroke-dasharray:5,5;" x1="980.9333" x2="980.9333" y1="110.0234" y2="1580.4609"/></g><g class="participant participant-head" data-participant="ehr"><rect fill="#E2E2F0" height="46.5938" rx="2.5" ry="2.5" style="stroke:#181818;stroke-width:0.5;" width="121.0713" x="5" y="62.4297"/><text fill="#000000" font-family="sans-serif" font-size="14" lengthAdjust="spacing" textLength="29.1006" x="50.9854" y="82.4248">EHR</text><text fill="#000000" font-family="sans-serif" font-size="14" lengthAdjust="spacing" textLength="102.6211" x="16.4502" y="98.7217">[ FHIR Server ]</text></g><g class="participant participant-tail" data-participant="ehr"><rect fill="#E2E2F0" height="46.5938" rx="2.5" ry="2.5" style="stroke:#181818;stroke-width:0.5;" width="121.0713" x="5" y="1579.4609"/><text fill="#000000" font-family="sans-serif" font-size="14" lengthAdjust="spacing" textLength="29.1006" x="50.9854" y="1599.4561">EHR</text><text fill="#000000" font-family="sans-serif" font-size="14" lengthAdjust="spacing" textLength="102.6211" x="16.4502" y="1615.7529">[ FHIR Server ]</text></g><g class="participant participant-head" data-participant="pip"><rect fill="#E2E2F0" height="46.5938" rx="2.5" ry="2.5" style="stroke:#181818;stroke-width:0.5;" width="180.2158" x="202.2715" y="62.4297"/><text fill="#000000" font-family="sans-serif" font-size="14" lengthAdjust="spacing" textLength="166.2158" x="209.2715" y="82.4248">Policy Information Point</text><text fill="#000000" font-family="sans-serif" font-size="14" lengthAdjust="spacing" textLength="48.7607" x="270.2241" y="98.7217">[ TBD ]</text></g><g class="participant participant-tail" data-participant="pip"><rect fill="#E2E2F0" height="46.5938" rx="2.5" ry="2.5" style="stroke:#181818;stroke-width:0.5;" width="180.2158" x="202.2715" y="1579.4609"/><text fill="#000000" font-family="sans-serif" font-size="14" lengthAdjust="spacing" textLength="166.2158" x="209.2715" y="1599.4561">Policy Information Point</text><text fill="#000000" font-family="sans-serif" font-size="14" lengthAdjust="spacing" textLength="48.7607" x="270.2241" y="1615.7529">[ TBD ]</text></g><g class="participant participant-head" data-participant="pdp"><rect fill="#E2E2F0" height="46.5938" rx="2.5" ry="2.5" style="stroke:#181818;stroke-width:0.5;" width="158.5322" x="410.4023" y="62.4297"/><text fill="#000000" font-family="sans-serif" font-size="14" lengthAdjust="spacing" textLength="144.5322" x="417.4023" y="82.4248">Policy Decision Point</text><text fill="#000000" font-family="sans-serif" font-size="14" lengthAdjust="spacing" textLength="96.0176" x="441.6597" y="98.7217">[ Knooppunt ]</text></g><g class="participant participant-tail" data-participant="pdp"><rect fill="#E2E2F0" height="46.5938" rx="2.5" ry="2.5" style="stroke:#181818;stroke-width:0.5;" width="158.5322" x="410.4023" y="1579.4609"/><text fill="#000000" font-family="sans-serif" font-size="14" lengthAdjust="spacing" textLength="144.5322" x="417.4023" y="1599.4561">Policy Decision Point</text><text fill="#000000" font-family="sans-serif" font-size="14" lengthAdjust="spacing" textLength="96.0176" x="441.6597" y="1615.7529">[ Knooppunt ]</text></g><g class="participant participant-head" data-participant="pep"><rect fill="#E2E2F0" height="46.5938" rx="2.5" ry="2.5" style="stroke:#181818;stroke-width:0.5;" width="188.8223" x="606.9116" y="62.4297"/><text fill="#000000" font-family="sans-serif" font-size="14" lengthAdjust="spacing" textLength="174.8223" x="613.9116" y="82.4248">Policy Enforcement Point</text><text fill="#000000" font-family="sans-serif" font-size="14" lengthAdjust="spacing" textLength="65.3379" x="668.6538" y="98.7217">[ NGINX ]</text></g><g class="participant participant-tail" data-participant="pep"><rect fill="#E2E2F0" height="46.5938" rx="2.5" ry="2.5" style="stroke:#181818;stroke-width:0.5;" width="188.8223" x="606.9116" y="1579.4609"/><text fill="#000000" font-family="sans-serif" font-size="14" lengthAdjust="spacing" textLength="174.8223" x="613.9116" y="1599.4561">Policy Enforcement Point</text><text fill="#000000" font-family="sans-serif" font-size="14" lengthAdjust="spacing" textLength="65.3379" x="668.6538" y="1615.7529">[ NGINX ]</text></g><g class="participant participant-head" data-participant="remoteXIS"><rect fill="#E2E2F0" height="30.2969" rx="2.5" ry="2.5" style="stroke:#181818;stroke-width:0.5;" width="142.0439" x="909.9333" y="78.7266"/><text fill="#000000" font-family="sans-serif" font-size="14" lengthAdjust="spacing" textLength="128.0439" x="916.9333" y="98.7217">FHIR Client/Server</text></g><g class="participant participant-tail" data-participant="remoteXIS"><rect fill="#E2E2F0" height="30.2969" rx="2.5" ry="2.5" style="stroke:#181818;stroke-width:0.5;" width="142.0439" x="909.9333" y="1579.4609"/><text fill="#000000" font-family="sans-serif" font-size="14" lengthAdjust="spacing" textLength="128.0439" x="916.9333" y="1599.4561">FHIR Client/Server</text></g><g><title>EHR</title><rect fill="#FFFFFF" height="285.5938" style="stroke:#181818;stroke-width:1;" width="10" x="60.5356" y="120.0234"/></g><g><title>Policy Information Point</title><rect fill="#FFFFFF" height="29.1328" style="stroke:#181818;stroke-width:1;" width="10" x="287.3794" y="214.5547"/></g><g><title>Policy Information Point</title><rect fill="#FFFFFF" height="29.1328" style="stroke:#181818;stroke-width:1;" width="10" x="287.3794" y="303.0859"/></g><g><title>Policy Information Point</title><rect fill="#FFFFFF" height="29.1328" style="stroke:#181818;stroke-width:1;" width="10" x="287.3794" y="652.9453"/></g><g><title>Policy Information Point</title><rect fill="#FFFFFF" height="44.2656" style="stroke:#181818;stroke-width:1;" width="10" x="287.3794" y="973.5391"/></g><g><title>Policy Information Point</title><rect fill="#FFFFFF" height="44.2656" style="stroke:#181818;stroke-width:1;" width="10" x="287.3794" y="1324.3984"/></g><g><title>Policy Decision Point</title><rect fill="#FFFFFF" height="1000.9141" style="stroke:#181818;stroke-width:1;" width="10" x="484.6685" y="518.2813"/></g><g><title>Policy Decision Point</title><rect fill="#FFFFFF" height="170.7969" style="stroke:#181818;stroke-width:1;" width="10" x="489.6685" y="603.6797"/></g><g><title>Policy Decision Point</title><rect fill="#FFFFFF" height="216.1953" style="stroke:#181818;stroke-width:1;" width="10" x="489.6685" y="894.0078"/></g><g><title>Policy Decision Point</title><rect fill="#FFFFFF" height="216.1953" style="stroke:#181818;stroke-width:1;" width="10" x="489.6685" y="1244.8672"/></g><g><title>Policy Enforcement Point</title><rect fill="#FFFFFF" height="1081.4453" style="stroke:#181818;stroke-width:1;" width="10" x="696.3228" y="474.0156"/></g><g><title>FHIR Client.Server</title><rect fill="#FFFFFF" height="1193.9766" style="stroke:#181818;stroke-width:1;" width="10" x="975.9553" y="376.4844"/></g><rect fill="#EEEEEE" height="3" style="stroke:#EEEEEE;stroke-width:1;" width="1131.437" x="0" y="140.5898"/><line style="stroke:#000000;stroke-width:1;" x1="0" x2="1131.437" y1="140.5898" y2="140.5898"/><line style="stroke:#000000;stroke-width:1;" x1="0" x2="1131.437" y1="143.5898" y2="143.5898"/><rect fill="#EEEEEE" height="23.1328" style="stroke:#000000;stroke-width:2;" width="304.3037" x="413.5667" y="130.0234"/><text fill="#000000" font-family="sans-serif" font-size="13" font-weight="bold" lengthAdjust="spacing" textLength="285.7778" x="419.5667" y="146.0903">Referral (Verwijzing), e.g. eOverdracht</text><g class="message" data-participant-1="ehr" data-participant-2="pip"><polygon fill="#181818" points="275.3794,210.5547,285.3794,214.5547,275.3794,218.5547,279.3794,214.5547" style="stroke:#181818;stroke-width:1;"/><line style="stroke:#181818;stroke-width:1;" x1="70.5356" x2="281.3794" y1="214.5547" y2="214.5547"/><text fill="#000000" font-family="sans-serif" font-size="13" lengthAdjust="spacing" textLength="197.8438" x="77.5356" y="179.2231">Record resource-level consent</text><text fill="#000000" font-family="sans-serif" font-size="13" lengthAdjust="spacing" textLength="96.1543" x="77.5356" y="194.356">POST /Consent</text><text fill="#000000" font-family="sans-serif" font-size="13" lengthAdjust="spacing" textLength="172.7515" x="85.8003" y="209.4888">custodian, actor, provision</text></g><g class="message" data-participant-1="pip" data-participant-2="ehr"><polygon fill="#181818" points="81.5356,239.6875,71.5356,243.6875,81.5356,247.6875,77.5356,243.6875" style="stroke:#181818;stroke-width:1;"/><line style="stroke:#181818;stroke-width:1;stroke-dasharray:2,2;" x1="75.5356" x2="291.3794" y1="243.6875" y2="243.6875"/><text fill="#000000" font-family="sans-serif" font-size="13" lengthAdjust="spacing" textLength="80.6787" x="87.5356" y="238.6216">201 Created</text></g><g class="message" data-participant-1="ehr" data-participant-2="pip"><polygon fill="#181818" points="275.3794,299.0859,285.3794,303.0859,275.3794,307.0859,279.3794,303.0859" style="stroke:#181818;stroke-width:1;"/><line style="stroke:#181818;stroke-width:1;" x1="70.5356" x2="281.3794" y1="303.0859" y2="303.0859"/><text fill="#000000" font-family="sans-serif" font-size="13" lengthAdjust="spacing" textLength="187.3066" x="77.5356" y="267.7544">Record patient-level consent</text><text fill="#000000" font-family="sans-serif" font-size="13" lengthAdjust="spacing" textLength="96.1543" x="77.5356" y="282.8872">POST /Consent</text><text fill="#000000" font-family="sans-serif" font-size="13" lengthAdjust="spacing" textLength="159.5801" x="85.8003" y="298.02">custodian, actor, patient</text></g><g class="message" data-participant-1="pip" data-participant-2="ehr"><polygon fill="#181818" points="81.5356,328.2188,71.5356,332.2188,81.5356,336.2188,77.5356,332.2188" style="stroke:#181818;stroke-width:1;"/><line style="stroke:#181818;stroke-width:1;stroke-dasharray:2,2;" x1="75.5356" x2="291.3794" y1="332.2188" y2="332.2188"/><text fill="#000000" font-family="sans-serif" font-size="13" lengthAdjust="spacing" textLength="80.6787" x="87.5356" y="327.1528">201 Created</text></g><g class="message" data-participant-1="ehr" data-participant-2="remoteXIS"><polygon fill="#181818" points="963.9553,372.4844,973.9553,376.4844,963.9553,380.4844,967.9553,376.4844" style="stroke:#181818;stroke-width:1;"/><line style="stroke:#181818;stroke-width:1;" x1="70.5356" x2="969.9553" y1="376.4844" y2="376.4844"/><text fill="#000000" font-family="sans-serif" font-size="13" lengthAdjust="spacing" textLength="38.6572" x="77.5356" y="356.2856">Notify</text><text fill="#000000" font-family="sans-serif" font-size="13" lengthAdjust="spacing" textLength="97.7983" x="77.5356" y="371.4185">POST Task/123</text></g><g class="message" data-participant-1="remoteXIS" data-participant-2="ehr"><polygon fill="#181818" points="76.5356,401.6172,66.5356,405.6172,76.5356,409.6172,72.5356,405.6172" style="stroke:#181818;stroke-width:1;"/><line style="stroke:#181818;stroke-width:1;stroke-dasharray:2,2;" x1="70.5356" x2="974.9553" y1="405.6172" y2="405.6172"/><text fill="#000000" font-family="sans-serif" font-size="13" lengthAdjust="spacing" textLength="47.7026" x="82.5356" y="400.5513">200 OK</text></g><path d="M172.2715,420.6172 L292.7261,420.6172 L292.7261,427.75 L282.7261,437.75 L172.2715,437.75 L172.2715,420.6172" fill="#EEEEEE" style="stroke:#000000;stroke-width:1.5;"/><rect fill="none" height="1142.8438" style="stroke:#000000;stroke-width:1.5;" width="889.7058" x="172.2715" y="420.6172"/><text fill="#000000" font-family="sans-serif" font-size="13" font-weight="bold" lengthAdjust="spacing" textLength="75.4546" x="187.2715" y="433.6841">Read Task</text><g class="message" data-participant-1="remoteXIS" data-participant-2="pep"><polygon fill="#181818" points="717.3228,470.0156,707.3228,474.0156,717.3228,478.0156,713.3228,474.0156" style="stroke:#181818;stroke-width:1;"/><line style="stroke:#181818;stroke-width:1;" x1="711.3228" x2="974.9553" y1="474.0156" y2="474.0156"/><text fill="#000000" font-family="sans-serif" font-size="13" lengthAdjust="spacing" textLength="89.7622" x="723.3228" y="453.8169">GET Task/123</text><text fill="#000000" font-family="sans-serif" font-size="13" lengthAdjust="spacing" textLength="176.1729" x="723.3228" y="468.9497">scope=eOverdracht-server</text></g><g class="message" data-participant-1="pep" data-participant-2="pdp"><polygon fill="#181818" points="505.6685,514.2813,495.6685,518.2813,505.6685,522.2813,501.6685,518.2813" style="stroke:#181818;stroke-width:1;"/><line style="stroke:#181818;stroke-width:1;" x1="499.6685" x2="695.3228" y1="518.2813" y2="518.2813"/><text fill="#000000" font-family="sans-serif" font-size="13" lengthAdjust="spacing" textLength="158.5581" x="511.6685" y="498.0825">Evaluate access request</text><text fill="#000000" font-family="sans-serif" font-size="13" lengthAdjust="spacing" textLength="124.8838" x="511.6685" y="513.2153">POST v1/data/main</text></g><path d="M711,491.582 L711,516.582 L1006,516.582 L1006,501.582 L996,491.582 L711,491.582" fill="#FEFFDD" style="stroke:#181818;stroke-width:0.5;"/><path d="M996,491.582 L996,501.582 L1006,501.582 L996,491.582" fill="#FEFFDD" style="stroke:#181818;stroke-width:0.5;"/><text fill="#000000" font-family="sans-serif" font-size="13" lengthAdjust="spacing" textLength="274.168" x="717" y="508.6489">'main' policy includes all use case-policies</text><path d="M182.2715,533.2813 L258.8955,533.2813 L258.8955,540.4141 L248.8955,550.4141 L182.2715,550.4141 L182.2715,533.2813" fill="#EEEEEE" style="stroke:#000000;stroke-width:1.5;"/><rect fill="none" height="978.9141" style="stroke:#000000;stroke-width:1.5;" width="623.4624" x="182.2715" y="533.2813"/><text fill="#000000" font-family="sans-serif" font-size="13" font-weight="bold" lengthAdjust="spacing" textLength="31.624" x="197.2715" y="546.3481">loop</text><text fill="#000000" font-family="sans-serif" font-size="11" font-weight="bold" lengthAdjust="spacing" textLength="199.4556" x="273.8955" y="545.4917">[Evaluate scope-mapped-policy]</text><path d="M192.2715,557.4141 L436.3149,557.4141 L436.3149,564.5469 L426.3149,574.5469 L192.2715,574.5469 L192.2715,557.4141" fill="#EEEEEE" style="stroke:#000000;stroke-width:1.5;"/><rect fill="none" height="232.0625" style="stroke:#000000;stroke-width:1.5;" width="509.0513" x="192.2715" y="557.4141"/><text fill="#000000" font-family="sans-serif" font-size="13" font-weight="bold" lengthAdjust="spacing" textLength="199.0435" x="207.2715" y="570.481">CapabilityStatement Policy</text><g class="message" data-participant-1="pdp" data-participant-2="pdp"><line style="stroke:#181818;stroke-width:1;" x1="494.6685" x2="541.6685" y1="590.6797" y2="590.6797"/><line style="stroke:#181818;stroke-width:1;" x1="541.6685" x2="541.6685" y1="590.6797" y2="603.6797"/><line style="stroke:#181818;stroke-width:1;" x1="500.6685" x2="541.6685" y1="603.6797" y2="603.6797"/><polygon fill="#181818" points="510.6685,599.6797,500.6685,603.6797,510.6685,607.6797,506.6685,603.6797" style="stroke:#181818;stroke-width:1;"/><text fill="#000000" font-family="sans-serif" font-size="13" lengthAdjust="spacing" textLength="56.7861" x="506.6685" y="585.6138">Evaluate</text></g><g class="message" data-participant-1="pdp" data-participant-2="pip"><polygon fill="#181818" points="308.3794,648.9453,298.3794,652.9453,308.3794,656.9453,304.3794,652.9453" style="stroke:#181818;stroke-width:1;"/><line style="stroke:#181818;stroke-width:1;" x1="302.3794" x2="488.6685" y1="652.9453" y2="652.9453"/><text fill="#000000" font-family="sans-serif" font-size="13" lengthAdjust="spacing" textLength="168.2891" x="314.3794" y="632.7466">GET /CapabilityStatement</text><text fill="#000000" font-family="sans-serif" font-size="13" lengthAdjust="spacing" textLength="118.7583" x="318.5117" y="647.8794">?url=canonical-url</text></g><g class="message" data-participant-1="pip" data-participant-2="pdp"><polygon fill="#181818" points="477.6685,678.0781,487.6685,682.0781,477.6685,686.0781,481.6685,682.0781" style="stroke:#181818;stroke-width:1;"/><line style="stroke:#181818;stroke-width:1;stroke-dasharray:2,2;" x1="292.3794" x2="483.6685" y1="682.0781" y2="682.0781"/><text fill="#000000" font-family="sans-serif" font-size="13" lengthAdjust="spacing" textLength="133.5483" x="299.3794" y="677.0122">CapabilityStatement</text></g><g class="message" data-participant-1="pdp" data-participant-2="pdp"><line style="stroke:#181818;stroke-width:1;" x1="499.6685" x2="541.6685" y1="726.3438" y2="726.3438"/><line style="stroke:#181818;stroke-width:1;" x1="541.6685" x2="541.6685" y1="726.3438" y2="739.3438"/><line style="stroke:#181818;stroke-width:1;" x1="500.6685" x2="541.6685" y1="739.3438" y2="739.3438"/><polygon fill="#181818" points="510.6685,735.3438,500.6685,739.3438,510.6685,743.3438,506.6685,739.3438" style="stroke:#181818;stroke-width:1;"/><text fill="#000000" font-family="sans-serif" font-size="13" lengthAdjust="spacing" textLength="167.6543" x="506.6685" y="706.145">Check FHIR operation v.s.</text><text fill="#000000" font-family="sans-serif" font-size="13" lengthAdjust="spacing" textLength="133.5483" x="506.6685" y="721.2778">CapabilityStatement</text></g><g class="message" data-participant-1="pdp" data-participant-2="pdp"><line style="stroke:#181818;stroke-width:1;stroke-dasharray:2,2;" x1="499.6685" x2="541.6685" y1="773.4766" y2="773.4766"/><line style="stroke:#181818;stroke-width:1;stroke-dasharray:2,2;" x1="541.6685" x2="541.6685" y1="773.4766" y2="786.4766"/><line style="stroke:#181818;stroke-width:1;stroke-dasharray:2,2;" x1="494.6685" x2="541.6685" y1="786.4766" y2="786.4766"/><polygon fill="#181818" points="504.6685,782.4766,494.6685,786.4766,504.6685,790.4766,500.6685,786.4766" style="stroke:#181818;stroke-width:1;"/><text fill="#000000" font-family="sans-serif" font-size="13" lengthAdjust="spacing" textLength="80.8755" x="506.6685" y="768.4106">Permit/Deny</text></g><g class="message" data-participant-1="pdp" data-participant-2="pep"><polygon fill="#181818" points="684.3228,828.7422,694.3228,832.7422,684.3228,836.7422,688.3228,832.7422" style="stroke:#181818;stroke-width:1;"/><line style="stroke:#181818;stroke-width:1;stroke-dasharray:2,2;" x1="494.6685" x2="690.3228" y1="832.7422" y2="832.7422"/><text fill="#000000" font-family="sans-serif" font-size="13" lengthAdjust="spacing" textLength="8.4106" x="501.6685" y="812.5435">If</text><text fill="#000000" font-family="sans-serif" font-size="13" font-style="italic" lengthAdjust="spacing" textLength="33.9409" x="514.2114" y="812.5435">Deny</text><text fill="#000000" font-family="sans-serif" font-size="13" lengthAdjust="spacing" textLength="4.1323" x="548.1523" y="812.5435">,</text><text fill="#000000" font-family="sans-serif" font-size="13" lengthAdjust="spacing" textLength="96.9985" x="501.6685" y="827.6763">end evaluation</text></g><path d="M192.2715,847.7422 L397.2769,847.7422 L397.2769,854.875 L387.2769,864.875 L192.2715,864.875 L192.2715,847.7422" fill="#EEEEEE" style="stroke:#000000;stroke-width:1.5;"/><rect fill="none" height="277.4609" style="stroke:#000000;stroke-width:1.5;" width="435.2153" x="192.2715" y="847.7422"/><text fill="#000000" font-family="sans-serif" font-size="13" font-weight="bold" lengthAdjust="spacing" textLength="160.0054" x="207.2715" y="860.8091">Resource-Level Policy</text><g class="message" data-participant-1="pdp" data-participant-2="pdp"><line style="stroke:#181818;stroke-width:1;" x1="494.6685" x2="541.6685" y1="881.0078" y2="881.0078"/><line style="stroke:#181818;stroke-width:1;" x1="541.6685" x2="541.6685" y1="881.0078" y2="894.0078"/><line style="stroke:#181818;stroke-width:1;" x1="500.6685" x2="541.6685" y1="894.0078" y2="894.0078"/><polygon fill="#181818" points="510.6685,890.0078,500.6685,894.0078,510.6685,898.0078,506.6685,894.0078" style="stroke:#181818;stroke-width:1;"/><text fill="#000000" font-family="sans-serif" font-size="13" lengthAdjust="spacing" textLength="56.7861" x="506.6685" y="875.9419">Evaluate</text></g><g class="message" data-participant-1="pdp" data-participant-2="pip"><polygon fill="#181818" points="308.3794,969.5391,298.3794,973.5391,308.3794,977.5391,304.3794,973.5391" style="stroke:#181818;stroke-width:1;"/><line style="stroke:#181818;stroke-width:1;" x1="302.3794" x2="488.6685" y1="973.5391" y2="973.5391"/><text fill="#000000" font-family="sans-serif" font-size="13" lengthAdjust="spacing" textLength="88.1182" x="314.3794" y="923.0747">GET /Consent</text><text fill="#000000" font-family="sans-serif" font-size="13" lengthAdjust="spacing" textLength="106.4756" x="322.644" y="938.2075">?data=Task/123</text><text fill="#000000" font-family="sans-serif" font-size="13" lengthAdjust="spacing" textLength="149.2144" x="322.644" y="953.3403">&amp;custodian=URA|9876</text><text fill="#000000" font-family="sans-serif" font-size="13" lengthAdjust="spacing" textLength="119.4438" x="322.644" y="968.4731">&amp;actor=URA|4321</text></g><g class="message" data-participant-1="pip" data-participant-2="pdp"><polygon fill="#181818" points="477.6685,1013.8047,487.6685,1017.8047,477.6685,1021.8047,481.6685,1017.8047" style="stroke:#181818;stroke-width:1;"/><line style="stroke:#181818;stroke-width:1;stroke-dasharray:2,2;" x1="292.3794" x2="483.6685" y1="1017.8047" y2="1017.8047"/><text fill="#000000" font-family="sans-serif" font-size="13" lengthAdjust="spacing" textLength="47.7026" x="299.3794" y="997.606">200 OK</text><text fill="#000000" font-family="sans-serif" font-size="13" lengthAdjust="spacing" textLength="70.2939" x="299.3794" y="1012.7388">(Consents)</text></g><g class="message" data-participant-1="pdp" data-participant-2="pdp"><line style="stroke:#181818;stroke-width:1;" x1="499.6685" x2="541.6685" y1="1062.0703" y2="1062.0703"/><line style="stroke:#181818;stroke-width:1;" x1="541.6685" x2="541.6685" y1="1062.0703" y2="1075.0703"/><line style="stroke:#181818;stroke-width:1;" x1="500.6685" x2="541.6685" y1="1075.0703" y2="1075.0703"/><polygon fill="#181818" points="510.6685,1071.0703,500.6685,1075.0703,510.6685,1079.0703,506.6685,1075.0703" style="stroke:#181818;stroke-width:1;"/><text fill="#000000" font-family="sans-serif" font-size="13" lengthAdjust="spacing" textLength="93.6978" x="506.6685" y="1041.8716">Verify consent</text><text fill="#000000" font-family="sans-serif" font-size="13" lengthAdjust="spacing" textLength="93.8184" x="506.6685" y="1057.0044">(period, t.b.d.)</text></g><g class="message" data-participant-1="pdp" data-participant-2="pdp"><line style="stroke:#181818;stroke-width:1;stroke-dasharray:2,2;" x1="499.6685" x2="541.6685" y1="1109.2031" y2="1109.2031"/><line style="stroke:#181818;stroke-width:1;stroke-dasharray:2,2;" x1="541.6685" x2="541.6685" y1="1109.2031" y2="1122.2031"/><line style="stroke:#181818;stroke-width:1;stroke-dasharray:2,2;" x1="494.6685" x2="541.6685" y1="1122.2031" y2="1122.2031"/><polygon fill="#181818" points="504.6685,1118.2031,494.6685,1122.2031,504.6685,1126.2031,500.6685,1122.2031" style="stroke:#181818;stroke-width:1;"/><text fill="#000000" font-family="sans-serif" font-size="13" lengthAdjust="spacing" textLength="80.8755" x="506.6685" y="1104.1372">Permit/Deny</text></g><g class="message" data-participant-1="pdp" data-participant-2="pep"><polygon fill="#181818" points="684.3228,1164.4688,694.3228,1168.4688,684.3228,1172.4688,688.3228,1168.4688" style="stroke:#181818;stroke-width:1;"/><line style="stroke:#181818;stroke-width:1;stroke-dasharray:2,2;" x1="494.6685" x2="690.3228" y1="1168.4688" y2="1168.4688"/><text fill="#000000" font-family="sans-serif" font-size="13" lengthAdjust="spacing" textLength="8.4106" x="501.6685" y="1148.27">If</text><text fill="#000000" font-family="sans-serif" font-size="13" font-style="italic" lengthAdjust="spacing" textLength="42.5547" x="514.2114" y="1148.27">Permit</text><text fill="#000000" font-family="sans-serif" font-size="13" lengthAdjust="spacing" textLength="4.1323" x="556.7661" y="1148.27">,</text><text fill="#000000" font-family="sans-serif" font-size="13" lengthAdjust="spacing" textLength="96.9985" x="501.6685" y="1163.4028">end evaluation</text></g><path d="M192.2715,1183.4688 L497.2651,1183.4688 L497.2651,1205.7344 L487.2651,1215.7344 L192.2715,1215.7344 L192.2715,1183.4688" fill="#EEEEEE" style="stroke:#000000;stroke-width:1.5;"/><rect fill="none" height="292.5938" style="stroke:#000000;stroke-width:1.5;" width="435.2153" x="192.2715" y="1183.4688"/><text fill="#000000" font-family="sans-serif" font-size="13" font-weight="bold" lengthAdjust="spacing" textLength="145.5771" x="207.2715" y="1196.5356">Patient-Level Policy</text><text fill="#000000" font-family="sans-serif" font-size="13" font-weight="bold" lengthAdjust="spacing" textLength="259.9937" x="207.2715" y="1211.6685">(if 'patient' input parameter exists)</text><g class="message" data-participant-1="pdp" data-participant-2="pdp"><line style="stroke:#181818;stroke-width:1;" x1="494.6685" x2="541.6685" y1="1231.8672" y2="1231.8672"/><line style="stroke:#181818;stroke-width:1;" x1="541.6685" x2="541.6685" y1="1231.8672" y2="1244.8672"/><line style="stroke:#181818;stroke-width:1;" x1="500.6685" x2="541.6685" y1="1244.8672" y2="1244.8672"/><polygon fill="#181818" points="510.6685,1240.8672,500.6685,1244.8672,510.6685,1248.8672,506.6685,1244.8672" style="stroke:#181818;stroke-width:1;"/><text fill="#000000" font-family="sans-serif" font-size="13" lengthAdjust="spacing" textLength="56.7861" x="506.6685" y="1226.8013">Evaluate</text></g><g class="message" data-participant-1="pdp" data-participant-2="pip"><polygon fill="#181818" points="308.3794,1320.3984,298.3794,1324.3984,308.3794,1328.3984,304.3794,1324.3984" style="stroke:#181818;stroke-width:1;"/><line style="stroke:#181818;stroke-width:1;" x1="302.3794" x2="488.6685" y1="1324.3984" y2="1324.3984"/><text fill="#000000" font-family="sans-serif" font-size="13" lengthAdjust="spacing" textLength="88.1182" x="314.3794" y="1273.9341">GET /Consent</text><text fill="#000000" font-family="sans-serif" font-size="13" lengthAdjust="spacing" textLength="106.4756" x="322.644" y="1289.0669">?data=Task/123</text><text fill="#000000" font-family="sans-serif" font-size="13" lengthAdjust="spacing" textLength="149.2144" x="322.644" y="1304.1997">&amp;custodian=URA|9876</text><text fill="#000000" font-family="sans-serif" font-size="13" lengthAdjust="spacing" textLength="119.4438" x="322.644" y="1319.3325">&amp;actor=URA|4321</text></g><g class="message" data-participant-1="pip" data-participant-2="pdp"><polygon fill="#181818" points="477.6685,1364.6641,487.6685,1368.6641,477.6685,1372.6641,481.6685,1368.6641" style="stroke:#181818;stroke-width:1;"/><line style="stroke:#181818;stroke-width:1;stroke-dasharray:2,2;" x1="292.3794" x2="483.6685" y1="1368.6641" y2="1368.6641"/><text fill="#000000" font-family="sans-serif" font-size="13" lengthAdjust="spacing" textLength="47.7026" x="299.3794" y="1348.4653">200 OK</text><text fill="#000000" font-family="sans-serif" font-size="13" lengthAdjust="spacing" textLength="70.2939" x="299.3794" y="1363.5981">(Consents)</text></g><g class="message" data-participant-1="pdp" data-participant-2="pdp"><line style="stroke:#181818;stroke-width:1;" x1="499.6685" x2="541.6685" y1="1412.9297" y2="1412.9297"/><line style="stroke:#181818;stroke-width:1;" x1="541.6685" x2="541.6685" y1="1412.9297" y2="1425.9297"/><line style="stroke:#181818;stroke-width:1;" x1="500.6685" x2="541.6685" y1="1425.9297" y2="1425.9297"/><polygon fill="#181818" points="510.6685,1421.9297,500.6685,1425.9297,510.6685,1429.9297,506.6685,1425.9297" style="stroke:#181818;stroke-width:1;"/><text fill="#000000" font-family="sans-serif" font-size="13" lengthAdjust="spacing" textLength="93.6978" x="506.6685" y="1392.731">Verify consent</text><text fill="#000000" font-family="sans-serif" font-size="13" lengthAdjust="spacing" textLength="93.8184" x="506.6685" y="1407.8638">(period, t.b.d.)</text></g><g class="message" data-participant-1="pdp" data-participant-2="pdp"><line style="stroke:#181818;stroke-width:1;stroke-dasharray:2,2;" x1="499.6685" x2="541.6685" y1="1460.0625" y2="1460.0625"/><line style="stroke:#181818;stroke-width:1;stroke-dasharray:2,2;" x1="541.6685" x2="541.6685" y1="1460.0625" y2="1473.0625"/><line style="stroke:#181818;stroke-width:1;stroke-dasharray:2,2;" x1="494.6685" x2="541.6685" y1="1473.0625" y2="1473.0625"/><polygon fill="#181818" points="504.6685,1469.0625,494.6685,1473.0625,504.6685,1477.0625,500.6685,1473.0625" style="stroke:#181818;stroke-width:1;"/><text fill="#000000" font-family="sans-serif" font-size="13" lengthAdjust="spacing" textLength="80.8755" x="506.6685" y="1454.9966">Permit/Deny</text></g><g class="message" data-participant-1="pdp" data-participant-2="pep"><polygon fill="#181818" points="684.3228,1500.1953,694.3228,1504.1953,684.3228,1508.1953,688.3228,1504.1953" style="stroke:#181818;stroke-width:1;"/><line style="stroke:#181818;stroke-width:1;stroke-dasharray:2,2;" x1="494.6685" x2="690.3228" y1="1504.1953" y2="1504.1953"/><text fill="#000000" font-family="sans-serif" font-size="13" lengthAdjust="spacing" textLength="80.8755" x="501.6685" y="1499.1294">Permit/Deny</text></g><g class="message" data-participant-1="pep" data-participant-2="remoteXIS"><polygon fill="#181818" points="963.9553,1551.4609,973.9553,1555.4609,963.9553,1559.4609,967.9553,1555.4609" style="stroke:#181818;stroke-width:1;"/><line style="stroke:#181818;stroke-width:1;stroke-dasharray:2,2;" x1="701.3228" x2="969.9553" y1="1555.4609" y2="1555.4609"/><text fill="#000000" font-family="sans-serif" font-size="13" lengthAdjust="spacing" textLength="47.7026" x="708.3228" y="1535.2622">200 OK</text><text fill="#000000" font-family="sans-serif" font-size="13" lengthAdjust="spacing" textLength="40.3521" x="708.3228" y="1550.395">(Task)</text></g><!--SRC=[lLLTRn9157tVNt7ZWoq97rAD7wHWQekMsBI4LjEa-32TlS3eChFEp69f_F7UcQ7i0gjYg-uJxDvpplquSySAco0SCSkWUyCdJ8uH3Z8xKLhSCYkKX7Fycg7a52JOMBEfYQ9hTGCdYhC4BdldK0lmOvN4g67tZLPoeZBwNOc0dfHfAxX8cRI04mtCmAFkyM0euGhU7lS69A1d1FpqQ2Cy5QaFxwj4y3dqv4ZfQSYghuIqdkFYpL4fDbx17Y4NfW2yWlTIgJJDABGCZIlehbFcE4Nwj2GuVTSxlNHWb35GItnR1ZXL5ejz6RZ-6UjQSp2In57I5-rH3kH4VLSE4q5gZT2SN2DgjubnX5fJztS_elucFjyAEQvK0UlZEk0PXSUQyOc5TZjYt8ePeuIeyv7hVgtZkzeY4gvqJCf6PLHQBS4P9i2LDEZAwv-TNq3ZyEul0C-CLR5WiWf4gdGLKgrclgUv2b67saYYHb9EiGLxJvfmg942uYZ6bU2ob5AQC8dU9wE0V7W- -JnQSAgi6CqN-XVCV6aqzvxc4ilGA0SLfPx0sVkYYXj4DDOgIwbU5dj6dsC1tl7-Qy6xRguub8Qh5Dk50TUCDuT7vrNWecHYS4HnseBkZ2MP-yWuHsD8objoKTEisOZ9g8qf4z93fNEm5kE9RS6EUxi3QJW7GlA4JhO1bYIG6GJE3DRyHu5cBP4u99BGCSipy4NKfYnDCGx0kOzoJ-ZA8KlPjKY4dPzRGYpEt4gWEzkXDiYBMtujpQButC75NOyR9PhaiDUPJjgSIIK5xReQ_TkWsd3QXjR2UI7N4fqDr9eZVvPyu9iW_nAsABLLXzKugvlwK6uZvRcMP7tKKs4RHoZdKNb2ozTk6_bfHHjKthYz4UoBZcFQRuXETIWT0CEWtC9OdVZWRWUT-1F_puUThv3NplZj_8W1F5vkbVQ7mS7tLozVFFUl_ORnhvuztMi-r0TXBGpbxY8NKtcG3UWQe1MLhyfTye9GSHLi_ReUrol_U_21S9lHznUxlZXvob-CO6Unp7TewQIPTTSbcwAxHl56cBAE_TueMndc_nfdQmFTsqXR6khl6ElF3FOBesrhk7NgrVXYpN7XNboxufTTT0Ejh26ZdB9uZ-Vt_Wy0]--></g></svg>